<?xml version="1.0" standalone="no"?>
<!DOCTYPE svg PUBLIC "-//W3C//DTD SVG 20010904//EN"
 "http://www.w3.org/TR/2001/REC-SVG-20010904/DTD/svg10.dtd">
<svg version="1.0" xmlns="http://www.w3.org/2000/svg"
 width="400.000000pt" height="400.000000pt" viewBox="0 0 400.000000 400.000000"
 preserveAspectRatio="xMidYMid meet">
<metadata>
Created by potrace 1.13, written by Peter Selinger 2001-2015
</metadata>
<g transform="translate(0.000000,400.000000) scale(0.100000,-0.100000)"
fill="#000000" stroke="none">
<path d="M267 3875 c-48 -17 -85 -50 -103 -92 -21 -48 -20 -3459 0 -3516 22
-59 66 -116 111 -143 l42 -24 1682 0 c1408 0 1687 2 1714 14 41 18 93 69 120
120 l22 41 3 1730 c2 1195 0 1741 -8 1767 -13 44 -66 93 -117 107 -26 8 -580
11 -1733 11 -1410 -1 -1701 -3 -1733 -15z m1155 -1250 c217 -560 219 -566 235
-563 10 2 67 142 164 403 82 220 153 410 159 423 l10 22 262 -2 262 -3 24
-155 c70 -464 223 -1459 228 -1482 l6 -28 -241 0 c-133 0 -241 1 -241 3 0 20
-121 792 -125 795 -12 12 -33 -31 -191 -384 -91 -203 -172 -379 -180 -392 -14
-21 -21 -22 -143 -22 -110 0 -130 3 -143 18 -8 9 -90 187 -183 395 -92 208
-172 380 -177 383 -5 3 -12 4 -14 1 -4 -4 -124 -773 -124 -793 0 -2 -108 -4
-241 -4 l-241 0 6 28 c6 30 181 1174 222 1447 14 94 27 176 29 183 4 10 62 12
267 10 l262 -3 108 -280z m2038 258 c0 -16 -12 -100 -25 -188 -14 -88 -48
-310 -75 -494 -28 -184 -55 -340 -61 -348 -9 -10 -47 -13 -150 -13 -135 0
-140 1 -148 23 -4 12 -20 103 -35 202 -15 99 -49 327 -77 507 -27 179 -49 329
-49 332 0 3 140 6 310 6 l310 0 0 -27z m-207 -1238 c123 -58 173 -209 111
-333 -43 -86 -141 -140 -235 -129 -267 32 -296 394 -39 478 36 12 123 3 163
-16z"/>
</g>
</svg>
